<svg width="600" height="600" viewBox="0 0 600 600" fill="none" xmlns="http://www.w3.org/2000/svg">
<g clip-path="url(#clip0_207_2)">
<rect x="60" y="540" width="480" height="60" fill="black"/>
<rect x="60" width="420" height="60" fill="black"/>
<rect x="540" y="120" width="60" height="480" fill="black"/>
<rect width="60" height="540" fill="black"/>
<rect x="480" y="60" width="60" height="60" fill="black"/>
<path d="M231.612 186.854H221.856V177.098H231.612V186.854ZM231.612 196.61H221.856V186.854H231.612V196.61ZM231.612 206.366H221.856V196.61H231.612V206.366ZM231.612 216.122H221.856V206.366H231.612V216.122ZM231.612 225.878H221.856V216.122H231.612V225.878ZM231.612 235.634H221.856V225.878H231.612V235.634ZM231.612 245.39H221.856V235.634H231.612V245.39ZM231.612 255.146H221.856V245.39H231.612V255.146ZM231.612 264.902H221.856V255.146H231.612V264.902ZM231.612 274.659H221.856V264.902H231.612V274.659ZM231.612 284.415H221.856V274.659H231.612V284.415ZM231.612 294.171H221.856V284.415H231.612V294.171ZM231.612 303.927H221.856V294.171H231.612V303.927ZM231.612 313.683H221.856V303.927H231.612V313.683ZM231.612 323.439H221.856V313.683H231.612V323.439ZM241.368 323.439H231.612V313.683H241.368V323.439ZM241.368 313.683H231.612V303.927H241.368V313.683ZM241.368 303.927H231.612V294.171H241.368V303.927ZM241.368 294.171H231.612V284.415H241.368V294.171ZM241.368 284.415H231.612V274.659H241.368V284.415ZM241.368 274.659H231.612V264.902H241.368V274.659ZM241.368 264.902H231.612V255.146H241.368V264.902ZM251.124 255.146H241.368V245.39H251.124V255.146ZM251.124 245.39H241.368V235.634H251.124V245.39ZM251.124 235.634H241.368V225.878H251.124V235.634ZM251.124 225.878H241.368V216.122H251.124V225.878ZM251.124 216.122H241.368V206.366H251.124V216.122ZM251.124 206.366H241.368V196.61H251.124V206.366ZM251.124 196.61H241.368V186.854H251.124V196.61ZM251.124 186.854H241.368V177.098H251.124V186.854ZM260.88 186.854H251.124V177.098H260.88V186.854ZM270.636 186.854H260.88V177.098H270.636V186.854ZM270.636 196.61H260.88V186.854H270.636V196.61ZM270.636 206.366H260.88V196.61H270.636V206.366ZM270.636 216.122H260.88V206.366H270.636V216.122ZM270.636 225.878H260.88V216.122H270.636V225.878ZM270.636 235.634H260.88V225.878H270.636V235.634ZM270.636 245.39H260.88V235.634H270.636V245.39ZM270.636 255.146H260.88V245.39H270.636V255.146ZM260.88 255.146H251.124V245.39H260.88V255.146ZM260.88 264.902H251.124V255.146H260.88V264.902ZM260.88 245.39H251.124V235.634H260.88V245.39ZM260.88 235.634H251.124V225.878H260.88V235.634ZM260.88 225.878H251.124V216.122H260.88V225.878ZM260.88 216.122H251.124V206.366H260.88V216.122ZM260.88 206.366H251.124V196.61H260.88V206.366ZM260.88 196.61H251.124V186.854H260.88V196.61ZM241.368 186.854H231.612V177.098H241.368V186.854ZM241.368 196.61H231.612V186.854H241.368V196.61ZM241.368 206.366H231.612V196.61H241.368V206.366ZM241.368 216.122H231.612V206.366H241.368V216.122ZM241.368 225.878H231.612V216.122H241.368V225.878ZM241.368 235.634H231.612V225.878H241.368V235.634ZM241.368 245.39H231.612V235.634H241.368V245.39ZM241.368 255.146H231.612V245.39H241.368V255.146ZM231.612 352.707H221.856V342.951H231.612V352.707ZM231.612 342.951H221.856V333.195H231.612V342.951ZM231.612 333.195H221.856V323.439H231.612V333.195ZM260.88 372.22H251.124V362.463H260.88V372.22ZM260.88 352.707H251.124V342.951H260.88V352.707ZM260.88 342.951H251.124V333.195H260.88V342.951ZM260.88 333.195H251.124V323.439H260.88V333.195ZM260.88 323.439H251.124V313.683H260.88V323.439ZM260.88 313.683H251.124V303.927H260.88V313.683ZM260.88 303.927H251.124V294.171H260.88V303.927ZM260.88 294.171H251.124V284.415H260.88V294.171ZM270.636 284.415H260.88V274.659H270.636V284.415ZM270.636 274.659H260.88V264.902H270.636V274.659ZM270.636 264.902H260.88V255.146H270.636V264.902ZM270.636 294.171H260.88V284.415H270.636V294.171ZM270.636 303.927H260.88V294.171H270.636V303.927ZM270.636 313.683H260.88V303.927H270.636V313.683ZM270.636 323.439H260.88V313.683H270.636V323.439ZM270.636 333.195H260.88V323.439H270.636V333.195ZM270.636 342.951H260.88V333.195H270.636V342.951ZM270.636 352.707H260.88V342.951H270.636V352.707ZM270.636 362.463H260.88V352.707H270.636V362.463ZM270.636 372.22H260.88V362.463H270.636V372.22ZM270.636 381.976H260.88V372.22H270.636V381.976ZM260.88 362.463H251.124V352.707H260.88V362.463ZM270.636 391.732H260.88V381.976H270.636V391.732ZM270.636 401.488H260.88V391.732H270.636V401.488ZM251.124 372.22H241.368V362.463H251.124V372.22ZM251.124 362.463H241.368V352.707H251.124V362.463ZM251.124 352.707H241.368V342.951H251.124V352.707ZM241.368 342.951H231.612V333.195H241.368V342.951ZM241.368 333.195H231.612V323.439H241.368V333.195ZM241.368 352.707H231.612V342.951H241.368V352.707ZM241.368 362.463H231.612V352.707H241.368V362.463ZM251.124 342.951H241.368V333.195H251.124V342.951ZM251.124 333.195H241.368V323.439H251.124V333.195ZM251.124 323.439H241.368V313.683H251.124V323.439ZM251.124 313.683H241.368V303.927H251.124V313.683ZM251.124 303.927H241.368V294.171H251.124V303.927ZM251.124 294.171H241.368V284.415H251.124V294.171ZM251.124 284.415H241.368V274.659H251.124V284.415ZM251.124 274.659H241.368V264.902H251.124V274.659ZM251.124 264.902H241.368V255.146H251.124V264.902ZM260.88 274.659H251.124V264.902H260.88V274.659ZM260.88 284.415H251.124V274.659H260.88V284.415ZM338.929 186.854H329.173V177.098H338.929V186.854ZM338.929 196.61H329.173V186.854H338.929V196.61ZM338.929 206.366H329.173V196.61H338.929V206.366ZM338.929 216.122H329.173V206.366H338.929V216.122ZM338.929 225.878H329.173V216.122H338.929V225.878ZM338.929 235.634H329.173V225.878H338.929V235.634ZM338.929 245.39H329.173V235.634H338.929V245.39ZM338.929 255.146H329.173V245.39H338.929V255.146ZM338.929 264.902H329.173V255.146H338.929V264.902ZM338.929 274.659H329.173V264.902H338.929V274.659ZM338.929 284.415H329.173V274.659H338.929V284.415ZM338.929 294.171H329.173V284.415H338.929V294.171ZM338.929 303.927H329.173V294.171H338.929V303.927ZM338.929 313.683H329.173V303.927H338.929V313.683ZM338.929 323.439H329.173V313.683H338.929V323.439ZM348.685 323.439H338.929V313.683H348.685V323.439ZM348.685 313.683H338.929V303.927H348.685V313.683ZM348.685 303.927H338.929V294.171H348.685V303.927ZM348.685 294.171H338.929V284.415H348.685V294.171ZM348.685 284.415H338.929V274.659H348.685V284.415ZM348.685 274.659H338.929V264.902H348.685V274.659ZM348.685 264.902H338.929V255.146H348.685V264.902ZM358.441 255.146H348.685V245.39H358.441V255.146ZM358.441 245.39H348.685V235.634H358.441V245.39ZM358.441 235.634H348.685V225.878H358.441V235.634ZM358.441 225.878H348.685V216.122H358.441V225.878ZM358.441 216.122H348.685V206.366H358.441V216.122ZM358.441 206.366H348.685V196.61H358.441V206.366ZM358.441 196.61H348.685V186.854H358.441V196.61ZM358.441 186.854H348.685V177.098H358.441V186.854ZM368.197 186.854H358.441V177.098H368.197V186.854ZM377.954 186.854H368.197V177.098H377.954V186.854ZM377.954 196.61H368.197V186.854H377.954V196.61ZM377.954 206.366H368.197V196.61H377.954V206.366ZM377.954 216.122H368.197V206.366H377.954V216.122ZM377.954 225.878H368.197V216.122H377.954V225.878ZM377.954 235.634H368.197V225.878H377.954V235.634ZM377.954 245.39H368.197V235.634H377.954V245.39ZM377.954 255.146H368.197V245.39H377.954V255.146ZM368.197 255.146H358.441V245.39H368.197V255.146ZM368.197 264.902H358.441V255.146H368.197V264.902ZM368.197 245.39H358.441V235.634H368.197V245.39ZM368.197 235.634H358.441V225.878H368.197V235.634ZM368.197 225.878H358.441V216.122H368.197V225.878ZM368.197 216.122H358.441V206.366H368.197V216.122ZM368.197 206.366H358.441V196.61H368.197V206.366ZM368.197 196.61H358.441V186.854H368.197V196.61ZM348.685 186.854H338.929V177.098H348.685V186.854ZM348.685 196.61H338.929V186.854H348.685V196.61ZM348.685 206.366H338.929V196.61H348.685V206.366ZM348.685 216.122H338.929V206.366H348.685V216.122ZM348.685 225.878H338.929V216.122H348.685V225.878ZM348.685 235.634H338.929V225.878H348.685V235.634ZM348.685 245.39H338.929V235.634H348.685V245.39ZM348.685 255.146H338.929V245.39H348.685V255.146ZM338.929 401.488H329.173V391.732H338.929V401.488ZM338.929 391.732H329.173V381.976H338.929V391.732ZM338.929 381.976H329.173V372.22H338.929V381.976ZM338.929 372.22H329.173V362.463H338.929V372.22ZM338.929 362.463H329.173V352.707H338.929V362.463ZM338.929 352.707H329.173V342.951H338.929V352.707ZM338.929 342.951H329.173V333.195H338.929V342.951ZM338.929 333.195H329.173V323.439H338.929V333.195ZM368.197 372.22H358.441V362.463H368.197V372.22ZM368.197 352.707H358.441V342.951H368.197V352.707ZM368.197 342.951H358.441V333.195H368.197V342.951ZM368.197 333.195H358.441V323.439H368.197V333.195ZM368.197 323.439H358.441V313.683H368.197V323.439ZM368.197 313.683H358.441V303.927H368.197V313.683ZM368.197 303.927H358.441V294.171H368.197V303.927ZM368.197 294.171H358.441V284.415H368.197V294.171ZM377.954 284.415H368.197V274.659H377.954V284.415ZM377.954 274.659H368.197V264.902H377.954V274.659ZM377.954 264.902H368.197V255.146H377.954V264.902ZM377.954 294.171H368.197V284.415H377.954V294.171ZM377.954 303.927H368.197V294.171H377.954V303.927ZM377.954 313.683H368.197V303.927H377.954V313.683ZM377.954 323.439H368.197V313.683H377.954V323.439ZM377.954 333.195H368.197V323.439H377.954V333.195ZM377.954 342.951H368.197V333.195H377.954V342.951ZM377.954 352.707H368.197V342.951H377.954V352.707ZM377.954 362.463H368.197V352.707H377.954V362.463ZM368.197 362.463H358.441V352.707H368.197V362.463ZM358.441 381.976H348.685V372.22H358.441V381.976ZM358.441 372.22H348.685V362.463H358.441V372.22ZM358.441 362.463H348.685V352.707H358.441V362.463ZM358.441 352.707H348.685V342.951H358.441V352.707ZM348.685 342.951H338.929V333.195H348.685V342.951ZM348.685 333.195H338.929V323.439H348.685V333.195ZM348.685 352.707H338.929V342.951H348.685V352.707ZM348.685 362.463H338.929V352.707H348.685V362.463ZM348.685 372.22H338.929V362.463H348.685V372.22ZM348.685 381.976H338.929V372.22H348.685V381.976ZM348.685 391.732H338.929V381.976H348.685V391.732ZM358.441 342.951H348.685V333.195H358.441V342.951ZM358.441 333.195H348.685V323.439H358.441V333.195ZM358.441 323.439H348.685V313.683H358.441V323.439ZM358.441 313.683H348.685V303.927H358.441V313.683ZM358.441 303.927H348.685V294.171H358.441V303.927ZM358.441 294.171H348.685V284.415H358.441V294.171ZM358.441 284.415H348.685V274.659H358.441V284.415ZM358.441 274.659H348.685V264.902H358.441V274.659ZM358.441 264.902H348.685V255.146H358.441V264.902ZM368.197 274.659H358.441V264.902H368.197V274.659ZM368.197 284.415H358.441V274.659H368.197V284.415ZM290.149 421H280.393V411.244H290.149V421ZM299.905 421H290.149V411.244H299.905V421ZM309.661 421H299.905V411.244H309.661V421ZM319.417 421H309.661V411.244H319.417V421ZM329.173 411.244H319.417V401.488H329.173V411.244ZM319.417 411.244H309.661V401.488H319.417V411.244ZM309.661 411.244H299.905V401.488H309.661V411.244ZM299.905 411.244H290.149V401.488H299.905V411.244ZM290.149 411.244H280.393V401.488H290.149V411.244ZM280.393 411.244H270.636V401.488H280.393V411.244ZM280.393 401.488H270.636V391.732H280.393V401.488ZM280.393 391.732H270.636V381.976H280.393V391.732ZM290.149 401.488H280.393V391.732H290.149V401.488ZM299.905 401.488H290.149V391.732H299.905V401.488ZM309.661 401.488H299.905V391.732H309.661V401.488ZM319.417 401.488H309.661V391.732H319.417V401.488ZM329.173 401.488H319.417V391.732H329.173V401.488ZM329.173 391.732H319.417V381.976H329.173V391.732ZM319.417 391.732H309.661V381.976H319.417V391.732ZM309.661 391.732H299.905V381.976H309.661V391.732ZM299.905 391.732H290.149V381.976H299.905V391.732ZM290.149 391.732H280.393V381.976H290.149V391.732ZM280.393 381.976H270.636V372.22H280.393V381.976ZM290.149 381.976H280.393V372.22H290.149V381.976ZM329.173 381.976H319.417V372.22H329.173V381.976ZM319.417 381.976H309.661V372.22H319.417V381.976ZM329.173 372.22H319.417V362.463H329.173V372.22ZM280.393 372.22H270.636V362.463H280.393V372.22ZM260.88 391.732H251.124V381.976H260.88V391.732ZM260.88 381.976H251.124V372.22H260.88V381.976ZM251.124 381.976H241.368V372.22H251.124V381.976ZM241.368 372.22H231.612V362.463H241.368V372.22ZM231.612 362.463H221.856V352.707H231.612V362.463ZM280.393 362.463H270.636V352.707H280.393V362.463ZM290.149 372.22H280.393V362.463H290.149V372.22ZM299.905 381.976H290.149V372.22H299.905V381.976ZM309.661 381.976H299.905V372.22H309.661V381.976ZM319.417 372.22H309.661V362.463H319.417V372.22ZM329.173 362.463H319.417V352.707H329.173V362.463ZM299.905 372.22H290.149V362.463H299.905V372.22ZM309.661 372.22H299.905V362.463H309.661V372.22ZM290.149 362.463H280.393V352.707H290.149V362.463ZM280.393 352.707H270.636V342.951H280.393V352.707ZM319.417 362.463H309.661V352.707H319.417V362.463ZM329.173 352.707H319.417V342.951H329.173V352.707Z" fill="black"/>
</g>
<defs>
<clipPath id="clip0_207_2">
<rect width="600" height="600" fill="white"/>
</clipPath>
</defs>
</svg>
